<svg xmlns="http://www.w3.org/2000/svg" width="666" height="385" style="shape-rendering:geometricPrecision;text-rendering:geometricPrecision;image-rendering:optimizeQuality;fill-rule:evenodd;clip-rule:evenodd"><path style="opacity:1" fill="#0f0f0f" d="M173.5 367.5c.333-83.336 0-166.669-1-250-.607.124-.94.457-1 1-.838.342-1.172 1.008-1 2a11615.189 11615.189 0 0 1-53 138.5c-3.169.978-6.003.478-8.5-1.5a12043.027 12043.027 0 0 0-51.5-136 5.728 5.728 0 0 0-1-3c-.06-.543-.393-.876-1-1-1 82.331-1.333 164.664-1 247 .322 2.222-.345 4.056-2 5.5-9 .667-18 .667-27 0a6.977 6.977 0 0 1-3.5-2.5 28559.822 28559.822 0 0 1 0-338 9.468 9.468 0 0 1 1.5-2.5 420.479 420.479 0 0 1 41 0A3411.033 3411.033 0 0 1 109 141.5a35.145 35.145 0 0 0 5 10 13513.236 13513.236 0 0 0 48-123l1.5-1.5a400.23 400.23 0 0 1 40 0 6.977 6.977 0 0 1 2.5 3.5c.667 112 .667 224 0 336-.5 1.833-1.667 3-3.5 3.5-8.667.667-17.333.667-26 0-1.619-.236-2.619-1.069-3-2.5Z"/><path style="opacity:1" fill="#0a0a0a" d="M266.5 167.5c16.968 1.986 34.301 2.653 52 2 .996-.086 1.829.248 2.5 1a28.931 28.931 0 0 0 1.5 4 465.796 465.796 0 0 1-1.5 52 11.333 11.333 0 0 1-3.5 1.5 1296.91 1296.91 0 0 0-50.5 1.5c-.667 27-.667 54 0 81 25.428.828 50.928 1.328 76.5 1.5a9.454 9.454 0 0 1 1.5 2.5 487.062 487.062 0 0 1-.5 53.5c-.405.945-1.072 1.612-2 2-35.333.667-70.667.667-106 0a9.454 9.454 0 0 1-2.5-1.5 28885.807 28885.807 0 0 1 0-340l1.5-1.5c34.667-.667 69.333-.667 104 0l1.5 1.5c.667 18 .667 36 0 54-.5 1.167-1.333 2-2.5 2.5-23.906.172-47.739.672-71.5 1.5-.5 26.998-.667 53.998-.5 81Z"/><path style="opacity:1" fill="#717171" d="M237.5 42.5h100v10h-100v-10Z"/><path style="opacity:1" fill="#e9e9e9" d="M238.5 44.5a2401.508 2401.508 0 0 1 98-1v8c-32.838.332-65.504-.002-98-1h97v-6h-97Z"/><path style="opacity:1" fill="#f8f8f8" d="M62.5 43.5c1.52 2.39 2.52 5.057 3 8-.342.838-1.008 1.172-2 1h-1c-11.822-.995-23.822-1.328-36-1v-8h36Z"/><path style="opacity:1" fill="#eaeaea" d="M165.5 42.5h36v9a376.173 376.173 0 0 0-38.5 1c-.304-3.593.529-6.926 2.5-10Z"/><path style="opacity:1" fill="#fefefe" d="M238.5 44.5h97v6h-97v-6Z"/><path style="opacity:1" fill="#696969" d="M62.5 43.5h-36v8c12.178-.328 24.178.005 36 1h-37v-10a342.839 342.839 0 0 1 37 1Z"/><path style="opacity:1" fill="#5a5a5a" d="M65.5 51.5c1.385.802 1.218 1.469-.5 2-.765-.07-1.265-.403-1.5-1 .992.172 1.658-.162 2-1Z"/><path style="opacity:1" fill="#969696" d="M337.5 80.5h-1v-23h-98v307c33.829.998 67.829 1.332 102 1a2652.905 2652.905 0 0 1-103 1v-310h100v24Z"/><path style="opacity:1" fill="#fdfdfd" d="M62.5 57.5c1.431 1.28 2.098 2.947 2 5-.334 2.991.666 5.324 3 7a456.617 456.617 0 0 1 14 38c-.334 2.991.666 5.324 3 7a1644.744 1644.744 0 0 1 19 51c-.334 2.991.666 5.324 3 7a22819.35 22819.35 0 0 1 7.5 19 6000.953 6000.953 0 0 1 37.5-98c1.037-1.43 1.704-3.097 2-5 3.245-10.752 7.245-21.085 12-31h35v307h-22c.333-91.669 0-183.336-1-275-3.417 2.425-4.75 5.759-4 10-14.17 37.167-28.17 74.5-42 112-2.039 1.411-3.039 3.411-3 6a3910.62 3910.62 0 0 1-3 10c-1.604.787-2.271 2.12-2 4a6419.609 6419.609 0 0 1-8.5 23c-.667 1.333-1.333 1.333-2 0a1937.674 1937.674 0 0 0-21.5-57c-.435-2.657-1.435-4.991-3-7a1547.262 1547.262 0 0 0-22-59c-.435-2.657-1.435-4.991-3-7a154.223 154.223 0 0 0-8-22c-.435-2.657-1.435-4.99-3-7 .27-1.88-.396-3.213-2-4-1 90.832-1.333 181.832-1 273h-22v-307h35Z"/><path style="opacity:1" fill="#fefefe" d="M336.5 80.5h-75c-.332 39.504.001 78.837 1 118a729.55 729.55 0 0 0 54 1v23a729.55 729.55 0 0 0-54 1 1741.435 1741.435 0 0 0 0 118 1482.71 1482.71 0 0 0 77 1v22h-101v-307h98v23Z"/><path style="opacity:1" fill="#fafafa" d="M482.5 99.5c-.09 2.652.576 4.985 2 7v48h-23a1095.91 1095.91 0 0 1-1.5-47c-1.777-5.931-4.611-11.264-8.5-16-1.085-2.087-2.751-3.42-5-4-4.746-3.362-10.079-5.362-16-6-4.146-1.147-8.48-1.314-13-.5-.916.278-1.582.778-2 1.5-13.406 4.243-21.906 13.243-25.5 27a256.122 256.122 0 0 0 0 32c1.996 7.658 5.33 14.658 10 21a156.779 156.779 0 0 1 17.5 19c.58 2.249 1.913 3.915 4 5a313.027 313.027 0 0 1 20 22c.58 2.249 1.913 3.915 4 5a451.703 451.703 0 0 1 29.5 32 41.965 41.965 0 0 1 6.5 12 362.85 362.85 0 0 1 1 65c-6.145 19.142-18.478 32.475-37 40-2.928.065-5.595.732-8 2-8.383 1.238-16.717 1.238-25 0-2.015-1.424-4.348-2.09-7-2-3.412-.575-6.412-1.908-9-4-.473-1.406-1.473-2.073-3-2-1.904-.238-3.238-1.238-4-3-1.085-2.087-2.751-3.42-5-4-10.998-10.646-16.998-23.646-18-39v-49h23a600.937 600.937 0 0 0 1 49c1.649 11.3 7.316 19.967 17 26 .473 1.406 1.473 2.073 3 2h1c1.602 1.574 3.602 2.241 6 2 4.134.985 8.468 1.318 13 1a30.815 30.815 0 0 0 11.5-3c1.03-.336 1.53-1.003 1.5-2 7.606-4.273 12.606-10.606 15-19 .722-.418 1.222-1.084 1.5-2 .667-16 .667-32 0-48-.232-1.237-.732-2.237-1.5-3-.428-3.744-2.095-6.744-5-9a1832.162 1832.162 0 0 0-70-75c-9.38-10.948-15.214-23.615-17.5-38a342.33 342.33 0 0 1 0-37 338.912 338.912 0 0 0 4.5-14c1.406-.473 2.073-1.473 2-3 1.259-3.525 3.259-6.525 6-9 1.406-.473 2.073-1.473 2-3 5.179-6.171 11.512-10.838 19-14a63.128 63.128 0 0 0 14-5c24.38-3.703 44.547 3.964 60.5 23a60.86 60.86 0 0 1 8.5 19Zm81-42h2a136.87 136.87 0 0 1 28 2 5384.72 5384.72 0 0 0 12 5c.473 1.406 1.473 2.073 3 2a156.992 156.992 0 0 1 16 14 115.385 115.385 0 0 1 6 13c.028 3.416 1.028 6.416 3 9 .801 1.542 1.134 3.208 1 5v47h-23a442.004 442.004 0 0 0-1.5-49 87.522 87.522 0 0 0-9.5-15c-1.085-2.087-2.751-3.42-5-4a32.517 32.517 0 0 1-7-3c-1.135-1.713-2.802-2.38-5-2h-3c-4.481-1.148-9.148-1.315-14-.5-.556.383-.889.883-1 1.5-11.138 3.136-18.805 10.136-23 21-1.424 2.015-2.09 4.348-2 7-.167 11.338 0 22.672.5 34 .705 2.976 1.871 5.642 3.5 8a17.341 17.341 0 0 0 3.5 7 331.844 331.844 0 0 0 14.5 16c-.073 1.527.594 2.527 2 3a2451.063 2451.063 0 0 1 56 62c4.584 4.169 7.917 9.169 10 15 .756 4.267 2.089 8.267 4 12a888.208 888.208 0 0 1-1 52c-7.322 25.49-23.988 40.657-50 45.5a76.123 76.123 0 0 1-20-.5c-3.733-1.911-7.733-3.244-12-4-2.319-.492-4.319-1.492-6-3-.473-1.406-1.473-2.073-3-2-14.684-9.99-23.351-23.99-26-42v-52h23a600.937 600.937 0 0 0 1 49c.565 4.037 1.899 7.703 4 11 2.941 7.274 7.941 12.607 15 16 .473 1.406 1.473 2.073 3 2 5.829 1.732 11.829 2.399 18 2 2.728.329 5.062-.337 7-2 13.065-5.249 20.899-14.916 23.5-29a420.29 420.29 0 0 0 0-41c-1.555-6.115-4.388-11.448-8.5-16a818.515 818.515 0 0 0-33-35 2750.666 2750.666 0 0 0-42.5-47 94.417 94.417 0 0 1-10-24 323.302 323.302 0 0 1 1-49c4.612-14.44 13.445-25.44 26.5-33 2.348-.092 4.014-1.092 5-3 5.017-.893 9.683-2.56 14-5Z"/><path style="opacity:1" fill="#dfdfdf" d="M62.5 57.5h-35v307h22c-.333-91.168 0-182.168 1-273v274h-24v-309c12.178-.328 24.178.005 36 1Z"/><path style="opacity:1" fill="#d0d0d0" d="M165.5 57.5c11.822-.995 23.822-1.328 36-1 .333 103.168-.001 206.168-1 309v-308h-35Z"/><path style="opacity:1" fill="#afafaf" d="M64.5 62.5c1.565 2.01 2.565 4.343 3 7-2.334-1.676-3.334-4.009-3-7Z"/><path style="opacity:1" fill="#0f0f0f" d="M599.5 256.5v-3h3c4.112 4.552 6.945 9.885 8.5 16a420.29 420.29 0 0 1 0 41c-2.601 14.084-10.435 23.751-23.5 29-2.652-.09-4.985.576-7 2-6.171.399-12.171-.268-18-2-.473-1.406-1.473-2.073-3-2-1.067-2.379-.067-3.379 3-3h2c.418.722 1.084 1.222 2 1.5 5.849.818 11.515.652 17-.5 11.576-3.737 18.743-11.404 21.5-23a65.65 65.65 0 0 1-12.5 11c-7.224 3.545-14.891 4.879-23 4-8.102-1.112-14.769-4.778-20-11a514.367 514.367 0 0 0-3-4l-1 1c.528 1.836 1.194 3.503 2 5a10.165 10.165 0 0 0-3 3c-2.101-3.297-3.435-6.963-4-11v-50h-25a702.728 702.728 0 0 0 1 53c2.649 18.01 11.316 32.01 26 42 .473 1.406 1.473 2.073 3 2 1.681 1.508 3.681 2.508 6 3 3.585 2.306 7.585 3.639 12 4a76.123 76.123 0 0 0 20 .5c26.012-4.843 42.678-20.01 50-45.5.814-2.131 1.314-4.464 1.5-7 .828-15.172.661-30.172-.5-45-.361-4.415-1.694-8.415-4-12-2.083-5.831-5.416-10.831-10-15 0-2 1-3 3-3l5 4a27.563 27.563 0 0 0 3.5 6c.264-3.039-.569-5.706-2.5-8a1853.6 1853.6 0 0 1-5.5-9 4677.504 4677.504 0 0 1-77-86 4.934 4.934 0 0 0-.5 3 12.93 12.93 0 0 1-.5 5c-.69-1.238-1.19-1.238-1.5 0-1.629-2.358-2.795-5.024-3.5-8a577.896 577.896 0 0 1-.5-34c1.424-2.015 2.09-4.348 2-7 4.195-10.864 11.862-17.864 23-21a67.24 67.24 0 0 1 15-1h3c1.43 1.037 3.097 1.704 5 2a32.517 32.517 0 0 0 7 3c1.085 2.087 2.751 3.42 5 4a87.522 87.522 0 0 1 9.5 15 442.004 442.004 0 0 1 1.5 49c7.816.992 15.816 1.326 24 1a576.628 576.628 0 0 0-1-48c.134-1.792-.199-3.458-1-5-.028-3.416-1.028-6.416-3-9a115.385 115.385 0 0 0-6-13c1.268-1.287.935-2.287-1-3 .925-1.062 1.925-1.062 3 0 1.723 1.753 3.223 3.753 4.5 6-.984-6.644-3.651-12.644-8-18-6.594-7.434-14.427-13.1-23.5-17-.473-1.406-1.473-2.073-3-2l-6-1c-.418-.722-1.084-1.222-2-1.5a75.152 75.152 0 0 0-22-1c-2.691.156-5.024.99-7 2.5-4.173.167-7.84 1.5-11 4-7.614 3.316-13.947 8.316-19 15-1.406.473-2.073 1.473-2 3-1.75 1.16-2.75 2.826-3 5-3.159 2.986-4.659 6.652-4.5 11a1853.6 1853.6 0 0 1 5.5-9 101.677 101.677 0 0 1 13-11 343.58 343.58 0 0 0 4-1c1.213.247 1.88.914 2 2v1c-13.055 7.56-21.888 18.56-26.5 33a323.302 323.302 0 0 0-1 49 94.417 94.417 0 0 0 10 24 2750.666 2750.666 0 0 1 42.5 47v3h-3a2531.686 2531.686 0 0 0-41.5-44c-12.547-19.274-17.38-40.441-14.5-63.5.444-7.768.444-15.435 0-23 5.22-44.451 30.22-65.784 75-64 29.833 5.833 47.667 23.667 53.5 53.5a1481.76 1481.76 0 0 1 0 77l-1.5 1.5c-9.333.667-18.667.667-28 0a9.454 9.454 0 0 1-2.5-1.5 684.794 684.794 0 0 0-2-50c-6.291-16.232-18.125-23.399-35.5-21.5-17.481 5.173-25.314 16.673-23.5 34.5a53.743 53.743 0 0 0 7 12l73 81c7.015 8.034 11.349 17.367 13 28 .667 25 .667 50 0 75-8.963 36.754-32.463 54.587-70.5 53.5-26.008-3.408-43.842-17.241-53.5-41.5a79.054 79.054 0 0 1-3-12 626.57 626.57 0 0 1 0-84l1.5-1.5a147.56 147.56 0 0 1 29.5.5 784.305 784.305 0 0 1 2 55c7.758 21.701 22.591 28.868 44.5 21.5 15.953-10.598 20.786-25.098 14.5-43.5a47.404 47.404 0 0 1-4.5-8Z"/><path style="opacity:1" fill="#737373" d="M580.5 81.5a67.24 67.24 0 0 0-15 1c.111-.617.444-1.117 1-1.5 4.852-.815 9.519-.648 14 .5Z"/><path style="opacity:1" fill="#b6b6b6" d="M524.5 72.5c-.172.992.162 1.658 1 2a1883.052 1883.052 0 0 0-5.5 9c-.159-4.348 1.341-8.014 4.5-11Z"/><path style="opacity:1" fill="#8c8c8c" d="M529.5 64.5c.073 1.527-.594 2.527-2 3-.073-1.527.594-2.527 2-3Z"/><path style="opacity:1" fill="#181818" d="M590.5 53.5c3.439 1.704 7.105 3.038 11 4 10.139 4.478 18.472 11.145 25 20-1.075-1.062-2.075-1.062-3 0 1.935.713 2.268 1.713 1 3a156.992 156.992 0 0 0-16-14c-.473-1.406-1.473-2.073-3-2a5531.132 5531.132 0 0 1-12-5c-1.976-1.51-4.309-2.344-7-2.5-7.179-.821-14.179-.655-21 .5h-2c-5.138.58-9.805 2.246-14 5a16.331 16.331 0 0 0-5 2c-.12-1.086-.787-1.753-2-2a343.58 343.58 0 0 1-4 1c3.817-3.909 8.484-6.242 14-7 2.897-.629 5.564-1.629 8-3 9.982-2.59 19.982-2.59 30 0Z"/><path style="opacity:1" fill="#b4b4b4" d="M559.5 45.5c-3.3 2.142-6.967 3.475-11 4 3.16-2.5 6.827-3.833 11-4Z"/><path style="opacity:1" fill="#838383" d="M596.5 46.5c1.527-.073 2.527.594 3 2-1.527.073-2.527-.594-3-2Z"/><path style="opacity:1" fill="#ededed" d="m590.5 45.5 6 1c.473 1.406 1.473 2.073 3 2 9.073 3.9 16.906 9.566 23.5 17 4.349 5.356 7.016 11.356 8 18-1.277-2.247-2.777-4.247-4.5-6-6.528-8.855-14.861-15.522-25-20-3.126-2.49-6.792-3.823-11-4-10.018-2.59-20.018-2.59-30 0-3.216-.154-5.883.846-8 3-5.516.758-10.183 3.091-14 7a101.677 101.677 0 0 0-13 11c-.838-.342-1.172-1.008-1-2 .25-2.174 1.25-3.84 3-5 1.406-.473 2.073-1.473 2-3 5.053-6.684 11.386-11.684 19-15 4.033-.525 7.7-1.858 11-4 10.341-2.612 20.674-2.612 31 0Z"/><path style="opacity:1" fill="#6a6a6a" d="M605.5 64.5c1.527-.073 2.527.594 3 2-1.527.073-2.527-.594-3-2Z"/><path style="opacity:1" fill="#a2a2a2" d="M549.5 62.5c-.986 1.908-2.652 2.908-5 3v-1a16.331 16.331 0 0 1 5-2Z"/><path style="opacity:1" fill="#989898" d="M563.5 57.5c-4.317 2.44-8.983 4.107-14 5 4.195-2.754 8.862-4.42 14-5Z"/><path style="opacity:1" fill="#7d7d7d" d="M565.5 57.5c6.821-1.155 13.821-1.321 21-.5 2.691.156 5.024.99 7 2.5a136.863 136.863 0 0 0-28-2Z"/><path style="opacity:1" fill="#5d5d5d" d="M560.5 53.5c-2.436 1.371-5.103 2.371-8 3 2.117-2.154 4.784-3.154 8-3Z"/><path style="opacity:1" fill="#7f7f7f" d="M590.5 53.5c4.208.177 7.874 1.51 11 4-3.895-.962-7.561-2.296-11-4Z"/><path style="opacity:1" fill="#747474" d="M590.5 45.5c-10.326-2.612-20.659-2.612-31 0 1.976-1.51 4.309-2.344 7-2.5a75.152 75.152 0 0 1 22 1c.916.278 1.582.778 2 1.5Z"/><path style="opacity:1" fill="#939393" d="M583.5 81.5c2.198-.38 3.865.287 5 2-1.903-.296-3.57-.963-5-2Z"/><path style="opacity:1" fill="gray" d="M336.5 80.5h1a1406.91 1406.91 0 0 1-75 1v117a3480.157 3480.157 0 0 1-1-118h75Z"/><path style="opacity:1" fill="#a1a1a1" d="M595.5 86.5c2.249.58 3.915 1.913 5 4-2.249-.58-3.915-1.913-5-4Z"/><path style="opacity:1" fill="#5e5e5e" d="M153.5 88.5c-.296 1.903-.963 3.57-2 5-.38-2.198.287-3.865 2-5Z"/><path style="opacity:1" fill="#0f0f0f" d="M446.5 253.5c.311-.978.978-1.645 2-2 1.686 1.357 3.352 2.69 5 4 2.905 2.256 4.572 5.256 5 9a355.435 355.435 0 0 1 0 53c-2.394 8.394-7.394 14.727-15 19a148.09 148.09 0 0 0-13 5c-4.532.318-8.866-.015-13-1-1.602-1.574-3.602-2.241-6-2h-1c-.473-1.406-1.473-2.073-3-2-9.684-6.033-15.351-14.7-17-26v-50h-25a625.298 625.298 0 0 0 1 50c1.002 15.354 7.002 28.354 18 39 1.085 2.087 2.751 3.42 5 4 .762 1.762 2.096 2.762 4 3 .473 1.406 1.473 2.073 3 2 2.588 2.092 5.588 3.425 9 4 2.015 1.424 4.348 2.09 7 2 8.283 1.238 16.617 1.238 25 0 2.995.206 5.662-.46 8-2 18.522-7.525 30.855-20.858 37-40 1.332-3.764 2.165-7.764 2.5-12a420.29 420.29 0 0 0 0-41c-.293-4.368-1.46-8.368-3.5-12a41.965 41.965 0 0 0-6.5-12 451.703 451.703 0 0 0-29.5-32c-.58-2.249-1.913-3.915-4-5a313.027 313.027 0 0 0-20-22c-.58-2.249-1.913-3.915-4-5a156.779 156.779 0 0 0-17.5-19c-4.67-6.342-8.004-13.342-10-21a256.122 256.122 0 0 1 0-32c3.594-13.757 12.094-22.757 25.5-27a89.367 89.367 0 0 1 15-1c5.921.638 11.254 2.638 16 6 1.085 2.087 2.751 3.42 5 4 3.889 4.736 6.723 10.069 8.5 16a1095.91 1095.91 0 0 0 1.5 47c7.816.992 15.816 1.326 24 1a576.628 576.628 0 0 0-1-48v-1c.09-2.652-.576-4.985-2-7a60.86 60.86 0 0 0-8.5-19c-15.953-19.036-36.12-26.703-60.5-23-5.169.499-9.836 2.166-14 5-7.488 3.162-13.821 7.829-19 14-1.406.473-2.073 1.473-2 3-2.741 2.475-4.741 5.475-6 9-1.406.473-2.073 1.473-2 3a338.912 338.912 0 0 1-4.5 14 342.33 342.33 0 0 0 0 37c2.286 14.385 8.12 27.052 17.5 38-1.145 1.293-.811 2.459 1 3.5-1.319.195-2.653.028-4-.5-11.181-11.658-17.681-25.658-19.5-42a756.122 756.122 0 0 1 0-55c3.893-32.894 22.06-52.727 54.5-59.5 40.06-2.574 64.56 15.593 73.5 54.5.667 25.333.667 50.667 0 76l-1.5 1.5c-9.667.667-19.333.667-29 0l-1.5-1.5a613.702 613.702 0 0 0-1.5-31c3.295-17.319-2.705-30.152-18-38.5-22.884-5.892-37.217 2.608-43 25.5.652 6.795 3.152 12.795 7.5 18a4677.504 4677.504 0 0 1 77 86c5.255 7.518 8.589 15.851 10 25 .667 24 .667 48 0 72-7.898 38.21-31.398 56.71-70.5 55.5-31.033-4.366-49.866-21.866-56.5-52.5a882.474 882.474 0 0 1-1-82c.273-1.829 1.107-3.329 2.5-4.5a147.56 147.56 0 0 1 29.5.5c1.026 19.628 2.026 39.295 3 59 8.239 17.703 21.739 23.87 40.5 18.5 17.743-9.538 23.576-24.038 17.5-43.5-1.76-4.533-4.26-8.533-7.5-12Z"/><path style="opacity:1" fill="#626262" d="M372.5 88.5c.073 1.527-.594 2.527-2 3-.073-1.527.594-2.527 2-3Z"/><path style="opacity:1" fill="#adadad" d="M446.5 87.5c2.249.58 3.915 1.913 5 4-2.249-.58-3.915-1.913-5-4Z"/><path style="opacity:1" fill="#6e6e6e" d="M430.5 81.5a89.367 89.367 0 0 0-15 1c.418-.722 1.084-1.222 2-1.5 4.52-.814 8.854-.647 13 .5Z"/><path style="opacity:1" fill="#919191" d="M380.5 76.5c.073 1.527-.594 2.527-2 3-.073-1.527.594-2.527 2-3Z"/><path style="opacity:1" fill="#aaa" d="M372.5 74.5c0 1.333.667 2 2 2a32.318 32.318 0 0 1-4.5 6c-.589-3.145.245-5.812 2.5-8Z"/><path style="opacity:1" fill="#d1d1d1" d="M469.5 62.5c6.456 5.58 10.289 12.58 11.5 21a257.9 257.9 0 0 0-11.5-15c1.141-1.951 1.141-3.951 0-6Z"/><path style="opacity:1" fill="#909090" d="M404.5 46.5c-1.533 1.745-3.533 2.745-6 3 1.533-1.745 3.533-2.745 6-3Z"/><path style="opacity:1" fill="#8c8c8c" d="M439.5 44.5c3.832.382 7.165 1.715 10 4-3.649-.767-6.982-2.1-10-4Z"/><path style="opacity:1" fill="#878787" d="M411.5 44.5c-2.015 1.424-4.348 2.09-7 2 2.015-1.424 4.348-2.09 7-2Z"/><path style="opacity:1" fill="#eee" d="M439.5 44.5c3.018 1.9 6.351 3.233 10 4 7.754 3.202 14.421 7.869 20 14 1.141 2.049 1.141 4.049 0 6a75.159 75.159 0 0 1-12-8c-.473-1.406-1.473-2.073-3-2a5.728 5.728 0 0 0-3-1c-2.117-2.154-4.784-3.154-8-3a19.24 19.24 0 0 0-6-1c-.763-.768-1.763-1.268-3-1.5-6.846-.82-13.513-.654-20 .5-16.424 2.878-29.758 10.878-40 24-1.333 0-2-.667-2-2 6.074-11.075 14.741-19.408 26-25 2.467-.255 4.467-1.255 6-3 2.652.09 4.985-.576 7-2 9.205-1.292 18.538-1.292 28 0Z"/><path style="opacity:1" fill="#ababab" d="M413.5 57.5a63.128 63.128 0 0 1-14 5c4.164-2.834 8.831-4.501 14-5Z"/><path style="opacity:1" fill="#7d7d7d" d="M454.5 58.5c1.527-.073 2.527.594 3 2-1.527.073-2.527-.594-3-2Z"/><path style="opacity:1" fill="#909090" d="M443.5 54.5c3.216-.154 5.883.846 8 3-2.897-.629-5.564-1.629-8-3Z"/><path style="opacity:1" fill="#797979" d="M414.5 52.5c6.487-1.154 13.154-1.32 20-.5 1.237.232 2.237.732 3 1.5a168.322 168.322 0 0 0-23-1Z"/><path style="opacity:1" fill="#e5e5e5" d="M200.5 364.5v1h-23c.167-91.334 0-182.667-.5-274l-1.5 3a26.332 26.332 0 0 1-2 5c-.75-4.241.583-7.575 4-10 1 91.664 1.333 183.331 1 275h22Z"/><path style="opacity:1" fill="#b1b1b1" d="M630.5 93.5c1.972 2.584 2.972 5.584 3 9-1.972-2.584-2.972-5.584-3-9Z"/><path style="opacity:1" fill="#444" d="M52.5 95.5c1.565 2.01 2.565 4.343 3 7-2.334-1.676-3.334-4.009-3-7Z"/><path style="opacity:1" fill="#959595" d="M482.5 99.5c1.424 2.015 2.09 4.348 2 7-1.424-2.015-2.09-4.348-2-7Z"/><path style="opacity:1" fill="#484848" d="M542.5 103.5c.09 2.652-.576 4.985-2 7-.09-2.652.576-4.985 2-7Z"/><path style="opacity:1" fill="#b4b4b4" d="M81.5 107.5c1.565 2.009 2.565 4.343 3 7-2.334-1.676-3.334-4.009-3-7Z"/><path style="opacity:1" fill="#848484" d="M484.5 107.5a576.628 576.628 0 0 1 1 48c-8.184.326-16.184-.008-24-1h23v-47Z"/><path style="opacity:1" fill="#a2a2a2" d="M171.5 118.5c.904.709 1.237 1.709 1 3l-2-1c-.172-.992.162-1.658 1-2Z"/><path style="opacity:1" fill="#b2b2b2" d="M56.5 118.5c.61.891.943 1.891 1 3l-2 1c-.268-1.599.066-2.932 1-4Z"/><path style="opacity:1" fill="#2c2c2c" d="M56.5 118.5c-.934 1.068-1.268 2.401-1 4 .333 80.835 0 161.502-1 242-.333-82.336 0-164.669 1-247 .607.124.94.457 1 1Z"/><path style="opacity:1" fill="#262626" d="M50.5 91.5c1.604.787 2.27 2.12 2 4l-2 270v-274Z"/><path style="opacity:1" fill="#434343" d="M63.5 124.5c1.565 2.009 2.565 4.343 3 7-2.334-1.676-3.334-4.009-3-7Z"/><path style="opacity:1" fill="#181818" d="M171.5 118.5c.06-.543.393-.876 1-1 1 83.331 1.333 166.664 1 250a15129.24 15129.24 0 0 1-1-246c.237-1.291-.096-2.291-1-3Z"/><path style="opacity:1" fill="#404040" d="m177.5 365.5-2-271 1.5-3c.5 91.333.667 182.666.5 274Z"/><path style="opacity:1" fill="#7a7a7a" d="M634.5 107.5a576.628 576.628 0 0 1 1 48c-8.184.326-16.184-.008-24-1h23v-47Z"/><path style="opacity:1" fill="#b1b1b1" d="M103.5 165.5c1.565 2.009 2.565 4.343 3 7-2.334-1.676-3.334-4.009-3-7Z"/><path style="opacity:1" fill="#272727" d="M266.5 167.5c17.431.654 34.765 1.32 52 2-17.699.653-35.032-.014-52-2Z"/><path style="opacity:1" fill="#919191" d="M562.5 175.5c1.406.473 2.073 1.473 2 3-1.406-.473-2.073-1.473-2-3Z"/><path style="opacity:1" fill="#9d9d9d" d="M417.5 181.5c2.087 1.085 3.42 2.751 4 5-2.087-1.085-3.42-2.751-4-5Z"/><path style="opacity:1" fill="#a1a1a1" d="M267.5 193.5c-.973-2.448-1.306-5.115-1-8h51v9a625.298 625.298 0 0 1-50-1Z"/><path style="opacity:1" fill="#fbfbfb" d="M267.5 193.5v-7h49v7h-49Z"/><path style="opacity:1" fill="#dfdfdf" d="M629.5 239.5c.172.992-.162 1.658-1 2l-5-4a7379.69 7379.69 0 0 0-66.5-75 95.861 95.861 0 0 1-10.5-15 4.934 4.934 0 0 1 .5-3 4677.504 4677.504 0 0 0 77 86 1853.6 1853.6 0 0 0 5.5 9Z"/><path style="opacity:1" fill="#434343" d="M88.5 190.5c1.565 2.009 2.565 4.343 3 7-2.334-1.676-3.334-4.009-3-7Z"/><path style="opacity:1" fill="#dedede" d="M395.5 143.5a3657.304 3657.304 0 0 1 82.5 93c2.24 3.453 3.573 7.119 4 11a5325.69 5325.69 0 0 0-81-92c-2.519-3.741-4.353-7.741-5.5-12Z"/><path style="opacity:1" fill="#161616" d="M546.5 147.5a95.861 95.861 0 0 0 10.5 15 7379.69 7379.69 0 0 1 66.5 75c-2 0-3 1-3 3a2451.063 2451.063 0 0 0-56-62c.073-1.527-.594-2.527-2-3a331.844 331.844 0 0 1-14.5-16 17.341 17.341 0 0 1-3.5-7c.31-1.238.81-1.238 1.5 0a12.93 12.93 0 0 0 .5-5Z"/><path style="opacity:1" fill="#9d9d9d" d="M441.5 208.5c2.087 1.085 3.42 2.751 4 5-2.087-1.085-3.42-2.751-4-5Z"/><path style="opacity:1" fill="#9e9e9e" d="M131.5 211.5c-.492 2.319-1.492 4.319-3 6-.039-2.589.961-4.589 3-6Z"/><path style="opacity:1" fill="#181818" d="M383.5 180.5a1832.162 1832.162 0 0 1 70 75c-1.648-1.31-3.314-2.643-5-4-1.022.355-1.689 1.022-2 2a3258.366 3258.366 0 0 1-66-70c1.347.528 2.681.695 4 .5-1.811-1.041-2.145-2.207-1-3.5Z"/><path style="opacity:1" fill="#b4b4b4" d="M262.5 198.5h55v25h-55a729.55 729.55 0 0 1 54-1v-23a729.55 729.55 0 0 1-54-1Z"/><path style="opacity:1" fill="#8b8b8b" d="M125.5 227.5c-.16 1.653-.826 2.986-2 4-.271-1.88.396-3.213 2-4Z"/><path style="opacity:1" fill="#171717" d="M569.5 218.5a818.515 818.515 0 0 1 33 35h-3v3a818.515 818.515 0 0 1-33-35h3v-3Z"/><path style="opacity:1" fill="#acacac" d="M629.5 239.5c1.931 2.294 2.764 4.961 2.5 8a27.563 27.563 0 0 1-3.5-6c.838-.342 1.172-1.008 1-2Z"/><path style="opacity:1" fill="#fbfbfb" d="M389.5 247.5v7h-23v-7h23Z"/><path style="opacity:1" fill="#a3a3a3" d="M389.5 247.5h-23v7h23c-7.816.992-15.816 1.326-24 1v-9c8.184-.326 16.184.008 24 1Zm127 0v7h23v-7c.973 2.448 1.306 5.115 1 8h-25c-.306-2.885.027-5.552 1-8Z"/><path style="opacity:1" fill="#fbfbfb" d="M516.5 247.5h23v7h-23v-7Z"/><path style="opacity:1" fill="#b5b5b5" d="M630.5 255.5c2.306 3.585 3.639 7.585 4 12-1.911-3.733-3.244-7.733-4-12Z"/><path style="opacity:1" fill="#828282" d="M540.5 310.5a600.937 600.937 0 0 1-1-49h-23v52a702.728 702.728 0 0 1-1-53h25v50Z"/><path style="opacity:1" fill="#9d9d9d" d="M390.5 310.5a600.937 600.937 0 0 1-1-49h-23v49a625.298 625.298 0 0 1-1-50h25v50Z"/><path style="opacity:1" fill="#c8c8c8" d="M481.5 257.5c2.04 3.632 3.207 7.632 3.5 12a420.29 420.29 0 0 1 0 41c-.335 4.236-1.168 8.236-2.5 12a362.85 362.85 0 0 0-1-65Z"/><path style="opacity:1" fill="#242424" d="M458.5 264.5c.768.763 1.268 1.763 1.5 3 .667 16 .667 32 0 48-.278.916-.778 1.582-1.5 2a355.435 355.435 0 0 0 0-53Z"/><path style="opacity:1" fill="#9f9f9f" d="M634.5 267.5c1.161 14.828 1.328 29.828.5 45-.186 2.536-.686 4.869-1.5 7a888.208 888.208 0 0 0 1-52Z"/><path style="opacity:1" fill="#ababab" d="M452.5 319.5c0-1.333-.667-2-2-2 1.335-2.403 3.002-3.736 5-4-.636 2.28-1.636 4.28-3 6Z"/><path style="opacity:1" fill="#959595" d="M549.5 316.5c-1.333 0-2 .667-2 2-.806-1.497-1.472-3.164-2-5l1-1a514.367 514.367 0 0 1 3 4Z"/><path style="opacity:1" fill="#efefef" d="M583.5 335.5c-6.369.153-12.703-.18-19-1h-2c-6.354-4.022-11.354-9.355-15-16 0-1.333.667-2 2-2 5.231 6.222 11.898 9.888 20 11 7.261 1.702 14.428 1.035 21.5-2 1.03-.336 1.53-1.003 1.5-2a65.65 65.65 0 0 0 12.5-11c-2.757 11.596-9.924 19.263-21.5 23Z"/><path style="opacity:1" fill="#eaeaea" d="M408.5 323.5c.473 1.406 1.473 2.073 3 2a5.727 5.727 0 0 1 3 1c2.856 1.506 6.023 2.172 9.5 2 2.361-.004 4.527-.337 6.5-1 7.528-1.764 14.195-5.097 20-10 1.333 0 2 .667 2 2-2.613 5.613-6.613 9.946-12 13-2.174.25-3.841 1.25-5 3-7.517 1.616-14.85 1.282-22-1-.473-1.406-1.473-2.073-3-2-2.872-1.026-5.372-2.692-7.5-5-3.728-4.451-6.062-9.451-7-15 3.118 4.957 7.285 8.624 12.5 11Z"/><path style="opacity:1" fill="#1a1a1a" d="M547.5 318.5c3.646 6.645 8.646 11.978 15 16-3.067-.379-4.067.621-3 3-7.059-3.393-12.059-8.726-15-16a10.165 10.165 0 0 1 3-3Z"/><path style="opacity:1" fill="#7c7c7c" d="M408.5 323.5c1.527-.073 2.527.594 3 2-1.527.073-2.527-.594-3-2Z"/><path style="opacity:1" fill="#8b8b8b" d="M414.5 326.5a96.873 96.873 0 0 0 16 1c-1.973.663-4.139.996-6.5 1-3.477.172-6.644-.494-9.5-2Z"/><path style="opacity:1" fill="#b2b2b2" d="M592.5 323.5c.03.997-.47 1.664-1.5 2-7.072 3.035-14.239 3.702-21.5 2 8.109.879 15.776-.455 23-4Z"/><path style="opacity:1" fill="#fbfbfb" d="M267.5 328.5h73v7h-73v-7Z"/><path style="opacity:1" fill="#848484" d="M410.5 332.5c1.527-.073 2.527.594 3 2-1.527.073-2.527-.594-3-2Z"/><path style="opacity:1" fill="#474747" d="M440.5 332.5c-.986 1.908-2.652 2.908-5 3 1.159-1.75 2.826-2.75 5-3Z"/><path style="opacity:1" fill="#bbb" d="M267.5 328.5v7h73a1369.272 1369.272 0 0 1-74 1c-.306-2.885.027-5.552 1-8Z"/><path style="opacity:1" fill="#a8a8a8" d="M564.5 334.5c6.297.82 12.631 1.153 19 1-5.485 1.152-11.151 1.318-17 .5-.916-.278-1.582-.778-2-1.5Z"/><path style="opacity:1" fill="#787878" d="M407.5 336.5c1.527-.073 2.527.594 3 2-1.527.073-2.527-.594-3-2Z"/><path style="opacity:1" fill="#a2a2a2" d="M443.5 336.5c.03.997-.47 1.664-1.5 2a30.815 30.815 0 0 1-11.5 3 148.09 148.09 0 0 1 13-5Z"/><path style="opacity:1" fill="#7d7d7d" d="M559.5 337.5c1.527-.073 2.527.594 3 2-1.527.073-2.527-.594-3-2Z"/><path style="opacity:1" fill="#4b4b4b" d="M411.5 338.5c2.398-.241 4.398.426 6 2-2.398.241-4.398-.426-6-2Z"/><path style="opacity:1" fill="#5b5b5b" d="M262.5 223.5v117c26.172-.331 52.172.002 78 1h-78a1741.435 1741.435 0 0 1 0-118Z"/><path style="opacity:1" fill="#959595" d="M587.5 339.5c-1.938 1.663-4.272 2.329-7 2 2.015-1.424 4.348-2.09 7-2Z"/><path style="opacity:1" fill="#adadad" d="M384.5 349.5c2.249.58 3.915 1.913 5 4-2.249-.58-3.915-1.913-5-4Z"/><path style="opacity:1" fill="#949494" d="M542.5 355.5c1.527-.073 2.527.594 3 2-1.527.073-2.527-.594-3-2Z"/><path style="opacity:1" fill="gray" d="M393.5 356.5c1.527-.073 2.527.594 3 2-1.527.073-2.527-.594-3-2Z"/><path style="opacity:1" fill="#a5a5a5" d="M551.5 360.5c4.267.756 8.267 2.089 12 4-4.415-.361-8.415-1.694-12-4Z"/><path style="opacity:1" fill="#838383" d="M405.5 362.5c2.652-.09 4.985.576 7 2-2.652.09-4.985-.576-7-2Z"/><path style="opacity:1" fill="#5a5a5a" d="M445.5 362.5c-2.338 1.54-5.005 2.206-8 2 2.405-1.268 5.072-1.935 8-2Z"/><path style="opacity:1" fill="#d4d4d4" d="M262.5 341.5h78v24c-34.171.332-68.171-.002-102-1h101v-22a1482.71 1482.71 0 0 1-77-1Z"/></svg>