<?xml version="1.0" encoding="UTF-8"?>
<svg width="100pt" height="100pt" version="1.1" viewBox="0 0 100 100" xmlns="http://www.w3.org/2000/svg">
 <g>
  <path d="m60.93 76.25h-0.89844c-1.0352 0-1.875-0.83984-1.875-1.875s0.83984-1.875 1.875-1.875h0.89844v-6.75c0-0.87109 0.60156-1.6289 1.4531-1.8242 2.4141-0.54688 4.7266-1.4844 6.8359-2.7852 0.74219-0.46094 1.7031-0.35156 2.3203 0.26562l4.7383 4.7383 4.8672-4.8672-4.7383-4.7383c-0.61719-0.61719-0.72656-1.5781-0.26562-2.3203 1.3203-2.1016 2.2695-4.4062 2.8164-6.8242 0.19531-0.85547 0.95312-1.4648 1.8281-1.4648h6.7148v-6.8594h-6.7148c-0.875 0-1.6328-0.60937-1.8281-1.4648-0.54688-2.418-1.4961-4.7227-2.8164-6.8242-0.46094-0.73828-0.35156-1.7031 0.26562-2.3203l4.7383-4.7383-4.8672-4.8672-4.7383 4.7383c-0.61719 0.61719-1.5781 0.72656-2.3203 0.26562-2.1094-1.3008-4.418-2.2383-6.8359-2.7812-0.85156-0.19922-1.4531-0.95703-1.4531-1.8281v-6.75h-6.8594v6.75c0 0.87109-0.60156 1.6289-1.4531 1.8281-2.418 0.54297-4.7266 1.4805-6.8359 2.7812-0.74219 0.46094-1.7031 0.35156-2.3203-0.26562l-4.7383-4.7383-4.8672 4.8672 4.7383 4.7383c0.61719 0.61719 0.72656 1.582 0.26562 2.3203-1.3203 2.1016-2.2695 4.4062-2.8164 6.8242-0.19531 0.85547-0.95312 1.4648-1.8281 1.4648h-6.7148v0.89844c0 1.0352-0.83984 1.875-1.875 1.875s-1.875-0.83984-1.875-1.875v-0.89844c0.003906-2.0703 1.6797-3.75 3.75-3.75h5.2578c0.52734-1.8203 1.25-3.5703 2.1602-5.2305l-3.7188-3.7188c-1.457-1.4648-1.457-3.832 0-5.2969l4.8711-4.8672v-0.003906c0.69922-0.70312 1.6523-1.1016 2.6484-1.0977 0.99609-0.003907 1.9492 0.39453 2.6484 1.0977l3.7188 3.7188h0.003906c1.6602-0.89062 3.4141-1.6055 5.2305-2.1211v-5.3008c0-2.0703 1.6797-3.7461 3.75-3.75h6.8633-0.003906c2.0703 0.003906 3.75 1.6797 3.75 3.75v5.3008c1.8125 0.51562 3.5664 1.2266 5.2266 2.1211l3.7188-3.7227c1.4648-1.4609 3.8359-1.4609 5.3008 0l4.875 4.8711c1.457 1.4648 1.457 3.832 0 5.3008l-3.7188 3.7188c0.91016 1.6602 1.6328 3.4102 2.1602 5.2305h5.2578c2.0703 0 3.7461 1.6797 3.75 3.75v6.8633-0.003906c-0.003906 2.0703-1.6797 3.75-3.75 3.75h-5.2578c-0.52734 1.8203-1.25 3.5742-2.1602 5.2305l3.7188 3.7148c1.457 1.4648 1.457 3.8359 0 5.3008l-4.8711 4.875c-1.4688 1.457-3.8359 1.457-5.3008 0l-3.7227-3.7227c-1.6602 0.89453-3.4102 1.6055-5.2266 2.1211v5.3008c0 2.0703-1.6797 3.7461-3.75 3.75z"/>
  <path d="m57.5 56.203c-1.0391 0.003906-1.8867-0.83203-1.8984-1.875-0.007812-0.49219 0.18359-0.96875 0.53125-1.3203 0.34766-0.35156 0.82031-0.55078 1.3125-0.55469h0.054688c4.0273 0.003906 7.6562-2.4219 9.1992-6.1445 1.5391-3.7188 0.6875-8.0039-2.1602-10.848-2.8438-2.8477-7.1289-3.6992-10.848-2.1602-3.7227 1.543-6.1484 5.1719-6.1445 9.1992 0 1.0391-0.83594 1.8867-1.875 1.8984-0.49609 0.007812-0.96875-0.18359-1.3203-0.53125-0.35156-0.34766-0.55078-0.81641-0.55078-1.3125-0.023437-5.5469 3.3008-10.562 8.4219-12.699 5.1211-2.1406 11.023-0.98047 14.953 2.9375 3.9336 3.9141 5.1133 9.8125 2.9961 14.941-2.1211 5.1289-7.125 8.4727-12.672 8.4688z"/>
  <path d="m35 91.25h-3.75c-2.0703-0.003906-3.7461-1.6797-3.75-3.75v-2.7812c-1.043-0.32031-2.0586-0.73438-3.0312-1.2344l-1.9492 1.9492v0.003906c-1.4648 1.457-3.8359 1.457-5.3008 0l-2.6523-2.6523c-1.4609-1.4648-1.4609-3.8359 0-5.3008l1.9453-1.9453c-0.51172-0.97266-0.93359-1.9922-1.2656-3.0391h-2.7461c-2.0703-0.003906-3.7461-1.6797-3.75-3.75v-3.75c0.003906-2.0703 1.6797-3.7461 3.75-3.75h2.7461c0.33203-1.0469 0.75391-2.0625 1.2656-3.0352l-1.9453-1.9453h-0.003906c-1.4609-1.4648-1.4609-3.8359 0-5.3008l2.6523-2.6523c1.4648-1.4609 3.8359-1.4609 5.3008 0l1.9492 1.9492c0.97266-0.5 1.9883-0.91406 3.0352-1.2344v-2.7812c0.003906-2.0703 1.6797-3.7461 3.75-3.75h3.75c2.0703 0.003906 3.7461 1.6797 3.75 3.75v2.7812c1.043 0.32031 2.0586 0.73438 3.0312 1.2344l1.9492-1.9492v-0.003906c1.4648-1.4609 3.8359-1.4609 5.3008 0l2.6523 2.6523c1.4609 1.4648 1.4609 3.8359 0 5.3008l-1.9453 1.9492c0.51172 0.97266 0.93359 1.9883 1.2617 3.0352h2.75c2.0703 0.003906 3.7461 1.6797 3.75 3.75v3.75c-0.003906 2.0703-1.6797 3.7461-3.75 3.75h-2.75c-0.32812 1.0469-0.75391 2.0625-1.2617 3.0352l1.9453 1.9453c1.4609 1.4648 1.4609 3.8359 0 5.3008l-2.6523 2.6523c-1.4648 1.4609-3.832 1.4609-5.2969 0l-1.9492-1.9492h-0.003906c-0.97266 0.49609-1.9844 0.91016-3.0312 1.2305v2.7852c0 2.0703-1.6797 3.7461-3.75 3.75zm-10.848-11.977c0.35547 0 0.69922 0.10156 1 0.28906 1.4336 0.88672 3.0039 1.5273 4.6484 1.8945 0.85156 0.19531 1.4531 0.95312 1.4531 1.8242v4.2188h3.7461v-4.2188c0-0.87109 0.60156-1.6289 1.4531-1.8242 1.6445-0.36719 3.2148-1.0078 4.6484-1.8945 0.73828-0.46484 1.7031-0.35547 2.3242 0.26172l2.9609 2.9609 2.6523-2.6523-2.9609-2.9609h-0.003906c-0.61719-0.61719-0.72656-1.582-0.25781-2.3242 0.89844-1.4258 1.5508-2.9961 1.9258-4.6367 0.19141-0.85547 0.95312-1.4609 1.8281-1.4609h4.1797v-3.75h-4.1836c-0.875 0-1.6328-0.60547-1.8281-1.4609-0.37109-1.6445-1.0234-3.2109-1.9258-4.6406-0.46484-0.73828-0.35938-1.7031 0.26172-2.3242l2.9609-2.9609-2.6523-2.6523-2.9609 2.9609c-0.61719 0.62109-1.5859 0.73047-2.3242 0.26172-1.4297-0.88672-3-1.5273-4.6445-1.8945-0.84766-0.19531-1.4531-0.94922-1.4531-1.8203v-4.2188h-3.75v4.2188c0 0.87109-0.60156 1.6289-1.4492 1.8242-1.6445 0.36719-3.2148 1.0039-4.6445 1.8945-0.73828 0.46484-1.707 0.35938-2.3242-0.26172l-2.9609-2.9609-2.6523 2.6523 2.9609 2.9609c0.62109 0.61719 0.72656 1.582 0.26172 2.3242-0.90234 1.4258-1.5547 2.9961-1.9258 4.6367-0.19531 0.85547-0.95703 1.4609-1.832 1.4609h-4.1836v3.75h4.1836c0.875 0 1.6328 0.60547 1.8281 1.4609 0.37109 1.6406 1.0234 3.2109 1.9258 4.6367 0.46484 0.74219 0.35938 1.707-0.26172 2.3242l-2.9609 2.9609 2.6523 2.6523 2.9609-2.9609c0.35156-0.35156 0.82812-0.55078 1.3242-0.55078z"/>
  <path d="m33.125 76.25c-3.793 0-7.2109-2.2852-8.6602-5.7891-1.4531-3.5-0.64844-7.5352 2.0312-10.215 2.6797-2.6797 6.7148-3.4844 10.215-2.0312 3.5039 1.4492 5.7891 4.8672 5.7891 8.6602-0.007812 5.1758-4.1992 9.3672-9.375 9.375zm0-15c-2.2734 0-4.3281 1.3711-5.1953 3.4727-0.87109 2.1016-0.39063 4.5195 1.2188 6.1289 1.6094 1.6094 4.0273 2.0898 6.1289 1.2188 2.1016-0.86719 3.4727-2.9219 3.4727-5.1953-0.003906-3.1055-2.5195-5.6211-5.625-5.625z"/>
 </g>
</svg>
