<?xml version="1.0" encoding="UTF-8"?>
<svg width="100pt" height="100pt" version="1.1" viewBox="0 0 100 100" xmlns="http://www.w3.org/2000/svg">
 <g>
  <path d="m81.875 37.812h-20.625v-12.188c-0.007812-5.1758-4.1992-9.3672-9.375-9.375h-33.75c-5.1758 0.007812-9.3672 4.1992-9.375 9.375v22.5c0.007812 5.1758 4.1992 9.3672 9.375 9.375v3.918c-0.003906 1.5117 0.91016 2.8789 2.3086 3.4531 1.4062 0.58984 3.0273 0.26562 4.1016-0.8125 0.066406-0.066406 0.12891-0.14062 0.18359-0.21484l4.668-6.3438h9.3633v12.188c0.007812 5.1758 4.1992 9.3711 9.375 9.375h20.785l6.5625 6.5625c1.0742 1.0703 2.6875 1.3906 4.0859 0.8125 1.4023-0.58203 2.3164-1.9492 2.3164-3.4648v-3.9102c5.1758-0.003906 9.3672-4.1992 9.375-9.375v-22.5c-0.007812-5.1758-4.1992-9.3672-9.375-9.375zm-53.438 15.938c-0.59766 0-1.1562 0.28516-1.5078 0.76562l-5.0547 6.8633v-5.7539c0-1.0352-0.83984-1.875-1.875-1.875h-1.875c-3.1055-0.003906-5.6211-2.5195-5.625-5.625v-22.5c0.003906-3.1055 2.5195-5.6211 5.625-5.625h33.75c3.1055 0.003906 5.6211 2.5195 5.625 5.625v12.188h-9.375c-1.9961 0.003906-3.9375 0.65234-5.5352 1.8477l-5.8828-12.938c-0.30469-0.66797-0.97266-1.0977-1.707-1.0977s-1.4023 0.42969-1.707 1.0977l-9.375 20.625c-0.42969 0.94531-0.011719 2.0547 0.93359 2.4844 0.24219 0.10938 0.50391 0.16797 0.77344 0.16797 0.73438 0 1.4023-0.42969 1.707-1.1016l2.9102-6.3984h9.5234l0.13281 0.28906h-0.003907c-0.73828 1.3516-1.1328 2.8633-1.1445 4.4023v6.5586zm9.6211-15h-6.1133l3.0547-6.7188zm49.441 30.938c-0.003906 3.1055-2.5195 5.6211-5.625 5.625h-1.875c-0.49609 0-0.97266 0.19922-1.3242 0.55078-0.35547 0.35156-0.55078 0.82812-0.55078 1.3242v5.7852l-7.1133-7.1133v0.003906c-0.35156-0.35156-0.82812-0.55078-1.3242-0.55078h-21.562c-3.1055-0.003906-5.6211-2.5195-5.625-5.625v-22.5c0.003906-3.1055 2.5195-5.6211 5.625-5.625h33.75c3.1055 0.003906 5.6211 2.5195 5.625 5.625z"/>
  <path d="m74.375 51.875h-7.5v-3.75c0-1.0352-0.83984-1.875-1.875-1.875s-1.875 0.83984-1.875 1.875v3.75h-7.5c-1.0352 0-1.875 0.83984-1.875 1.875s0.83984 1.875 1.875 1.875h13.914c-0.46094 3.1836-2.082 6.0898-4.5508 8.1523-1.4414-1.207-2.6094-2.7109-3.418-4.4102-0.44141-0.93359-1.5625-1.332-2.4961-0.89063-0.93359 0.44531-1.332 1.5625-0.89062 2.5 0.87109 1.8047 2.0625 3.4414 3.5156 4.8242-1.6641 0.71094-3.457 1.0781-5.2695 1.0742-0.49219 0.003906-0.96094 0.20312-1.3008 0.55859-0.33984 0.35156-0.52344 0.82812-0.50781 1.3164 0.03125 1.0508 0.89453 1.8828 1.9414 1.875 2.9805 0 5.9062-0.79688 8.4727-2.3047 2.5938 1.5039 5.5391 2.2969 8.5352 2.3047 0.49219 0 0.96094-0.20312 1.3008-0.55469 0.33984-0.35156 0.52344-0.82812 0.50781-1.3203-0.03125-1.0469-0.89453-1.8789-1.9414-1.875-1.7539-0.003906-3.4883-0.36719-5.1016-1.0586 2.793-2.7188 4.5586-6.3203 4.9883-10.191h1.0508c1.0352 0 1.875-0.83984 1.875-1.875s-0.83984-1.875-1.875-1.875z"/>
 </g>
</svg>
